name Walk5.mot
datacolumns 19
datarows 25
range 3.60500000 3.72500000
endheader

                time	   L_ground_force_vx	   L_ground_force_vy	   L_ground_force_vz	   L_ground_force_px	   L_ground_force_py	   L_ground_force_pz	   R_ground_force_vx	   R_ground_force_vy	   R_ground_force_vz	   R_ground_force_px	   R_ground_force_py	   R_ground_force_pz	   L_ground_torque_x	   L_ground_torque_y	   L_ground_torque_z	   R_ground_torque_x	   R_ground_torque_y	   R_ground_torque_z	
          3.60500000	         -0.00000000	         -0.00000000	         -0.00000000	         -0.00000000	          0.00000000	         -0.00000000	         19.81254104	        139.08094897	          7.30485484	          0.50249730	          0.00000000	          0.13616703	          0.00000000	         -0.00000000	          0.00000000	          0.00000000	         -4.37224101	          0.00000000	
          3.61000000	         -0.00000000	         -0.00000000	         -0.00000000	          0.00000000	          0.00000000	          0.00000000	         15.64101015	        112.42011224	          5.96646714	          0.48985423	          0.00000000	          0.13222330	          0.00000000	         -0.00000000	          0.00000000	          0.00000000	         -3.61313334	          0.00000000	
          3.61500000	         -0.00000000	         -0.00000000	         -0.00000000	          0.00000000	          0.00000000	          0.00000000	         11.89989764	         89.04912983	          4.66413008	          0.47036057	          0.00000000	          0.12647273	          0.00000000	         -0.00000000	          0.00000000	          0.00000000	         -2.91752102	          0.00000000	
          3.62000000	         -0.00000000	         -0.00000000	         -0.00000000	          0.00000000	          0.00000000	          0.00000000	          8.64134667	         68.80186119	          3.46220181	          0.44297802	          0.00000000	          0.11864695	          0.00000000	         -0.00000000	          0.00000000	          0.00000000	         -2.29359360	          0.00000000	
          3.62500000	         -0.00000000	         -0.00000000	         -0.00000000	          0.00000000	          0.00000000	          0.00000000	          5.89367483	         51.49810001	          2.40782354	          0.40707388	          0.00000000	          0.10860592	          0.00000000	         -0.00000000	          0.00000000	          0.00000000	         -1.74544743	          0.00000000	
          3.63000000	         -0.00000000	         -0.00000000	         -0.00000000	          0.00000000	          0.00000000	          0.00000000	          3.66366807	         36.94659860	          1.53013352	          0.36273422	          0.00000000	          0.09640732	          0.00000000	         -0.00000000	          0.00000000	          0.00000000	         -1.27423718	          0.00000000	
          3.63500000	         -0.00000000	         -0.00000000	         -0.00000000	          0.00000000	          0.00000000	          0.00000000	          1.93613719	         24.95650030	          0.83946303	          0.31114617	          0.00000000	          0.08239141	          0.00000000	         -0.00000000	          0.00000000	          0.00000000	         -0.87909511	          0.00000000	
          3.64000000	         -0.00000000	         -0.00000000	         -0.00000000	          0.00000000	          0.00000000	          0.00000000	          0.67188268	         15.35631657	          0.32822487	          0.25506968	          0.00000000	          0.06730289	          0.00000000	         -0.00000000	          0.00000000	          0.00000000	         -0.55801685	          0.00000000	
          3.64500000	         -0.00000000	         -0.00000000	         -0.00000000	          0.00000000	          0.00000000	          0.00000000	         -0.19222267	          7.98870638	         -0.02568952	          0.19904280	          0.00000000	          0.05233159	          0.00000000	         -0.00000000	          0.00000000	          0.00000000	         -0.30807940	          0.00000000	
          3.65000000	         -0.00000000	         -0.00000000	         -0.00000000	          0.00000000	          0.00000000	          0.00000000	         -0.73115420	          2.63219062	         -0.25061623	          0.14737196	          0.00000000	          0.03859199	          0.00000000	         -0.00000000	          0.00000000	          0.00000000	         -0.12343401	          0.00000000	
          3.65500000	          0.00000000	         -0.00000000	         -0.00000000	          0.00000000	          0.00000000	          0.00000000	         -1.01893510	         -1.01101363	         -0.37503666	          0.10258111	          0.00000000	          0.02672889	          0.00000000	         -0.00000000	          0.00000000	          0.00000000	          0.00473765	          0.00000000	
          3.66000000	          0.00000000	          0.00000000	         -0.00000000	          0.00000000	          0.00000000	          0.00000000	         -1.12289796	         -3.26737099	         -0.42516420	          0.06574469	          0.00000000	          0.01700738	          0.00000000	         -0.00000000	          0.00000000	          0.00000000	          0.08655695	          0.00000000	
          3.66500000	          0.00000000	          0.00000000	         -0.00000000	          0.00000000	          0.00000000	          0.00000000	         -1.10075969	         -4.45591971	         -0.42368468	          0.03692259	          0.00000000	          0.00942809	          0.00000000	         -0.00000000	          0.00000000	          0.00000000	          0.13218048	          0.00000000	
          3.67000000	          0.00000000	          0.00000000	          0.00000000	          0.00000000	          0.00000000	          0.00000000	         -0.99950605	         -4.86570361	         -0.38922755	          0.01551941	          0.00000000	          0.00382198	          0.00000000	         -0.00000000	          0.00000000	          0.00000000	          0.15098409	          0.00000000	
          3.67500000	          0.00000000	          0.00000000	          0.00000000	          0.00000000	          0.00000000	          0.00000000	         -0.85552522	         -4.74367176	         -0.33634767	          0.00056656	          0.00000000	         -0.00007537	          0.00000000	          0.00000000	          0.00000000	          0.00000000	          0.15110146	          0.00000000	
          3.68000000	          0.00000000	          0.00000000	          0.00000000	         -0.00000000	          0.00000000	          0.00000000	         -0.69553140	         -4.29024803	         -0.27583580	         -0.00906722	          0.00000000	         -0.00256871	          0.00000000	          0.00000000	          0.00000000	          0.00000000	          0.13922643	          0.00000000	
          3.68500000	          0.00000000	          0.00000000	          0.00000000	         -0.00000000	          0.00000000	         -0.00000000	         -0.53792234	         -3.66016942	         -0.21521543	         -0.01452806	          0.00000000	         -0.00396449	          0.00000000	          0.00000000	          0.00000000	          0.00000000	          0.12060008	          0.00000000	
          3.69000000	          0.00000000	          0.00000000	          0.00000000	         -0.00000000	          0.00000000	         -0.00000000	         -0.39430755	         -2.96663707	         -0.15931982	         -0.01688101	          0.00000000	         -0.00454603	          0.00000000	          0.00000000	          0.00000000	          0.00000000	          0.09911735	          0.00000000	
          3.69500000	          0.00000000	          0.00000000	          0.00000000	         -0.00000000	          0.00000000	         -0.00000000	         -0.27102520	         -2.28726309	         -0.11087478	         -0.01705482	          0.00000000	         -0.00455942	          0.00000000	          0.00000000	          0.00000000	          0.00000000	          0.07750191	          0.00000000	
          3.70000000	          0.00000000	          0.00000000	          0.00000000	         -0.00000000	          0.00000000	         -0.00000000	         -0.17053181	         -1.67069886	         -0.07103906	         -0.01581745	          0.00000000	         -0.00420742	          0.00000000	          0.00000000	          0.00000000	          0.00000000	          0.05751088	          0.00000000	
          3.70500000	          0.00000000	          0.00000000	          0.00000000	         -0.00000000	          0.00000000	         -0.00000000	         -0.09260034	         -1.14317609	         -0.03987485	         -0.01377298	          0.00000000	         -0.00364893	          0.00000000	          0.00000000	          0.00000000	          0.00000000	          0.04014261	          0.00000000	
          3.71000000	          0.00000000	          0.00000000	          0.00000000	         -0.00000000	          0.00000000	         -0.00000000	         -0.03530083	         -0.71447455	         -0.01673623	         -0.01137263	          0.00000000	         -0.00300219	          0.00000000	          0.00000000	          0.00000000	          0.00000000	          0.02582988	          0.00000000	
          3.71500000	          0.00000000	          0.00000000	          0.00000000	         -0.00000000	          0.00000000	         -0.00000000	          0.00423611	         -0.38305025	         -0.00057425	         -0.00893389	          0.00000000	         -0.00235002	          0.00000000	          0.00000000	          0.00000000	          0.00000000	          0.01460857	          0.00000000	
          3.72000000	          0.00000000	          0.00000000	          0.00000000	         -0.00000000	          0.00000000	         -0.00000000	          0.02925535	         -0.14021963	          0.00983554	         -0.00666341	          0.00000000	         -0.00174593	          0.00000000	          0.00000000	          0.00000000	          0.00000000	          0.00625720	          0.00000000	
          3.72500000	         -0.00000000	          0.00000000	          0.00000000	         -0.00000000	          0.00000000	         -0.00000000	          0.04298596	          0.02659262	          0.01573325	         -0.00468040	          0.00000000	         -0.00122046	          0.00000000	          0.00000000	          0.00000000	          0.00000000	          0.00040676	          0.00000000	
